<?xml version="1.0" standalone="no"?>
<!DOCTYPE svg PUBLIC "-//W3C//DTD SVG 20010904//EN"
 "http://www.w3.org/TR/2001/REC-SVG-20010904/DTD/svg10.dtd">
<svg version="1.0" xmlns="http://www.w3.org/2000/svg"
 width="500.000000pt" height="500.000000pt" viewBox="0 0 500.000000 500.000000"
 preserveAspectRatio="xMidYMid meet">
<metadata>
Created by potrace 1.11, written by Peter Selinger 2001-2013
</metadata>
<g transform="translate(0.000000,500.000000) scale(0.100000,-0.100000)"
fill="#000000" stroke="none">
<path d="M2295 4994 c-16 -2 -70 -9 -120 -15 -798 -97 -1531 -613 -1900 -1339
-133 -262 -211 -509 -257 -815 -18 -120 -18 -530 0 -650 46 -306 124 -553 257
-815 340 -668 977 -1154 1715 -1308 187 -39 271 -47 510 -47 239 0 323 8 510
47 738 154 1375 640 1715 1308 178 352 260 673 272 1070 15 523 -127 1024
-411 1449 -399 596 -1003 981 -1722 1096 -94 15 -498 29 -569 19z m292 -1459
c282 -46 457 -195 494 -423 33 -201 -73 -399 -266 -499 l-73 -37 67 -26 c229
-90 351 -264 351 -499 0 -167 -49 -291 -159 -401 -158 -157 -419 -221 -846
-206 -110 4 -222 10 -250 14 l-50 7 -3 1021 -2 1022 22 5 c22 6 151 23 228 30
104 11 403 6 487 -8z"/>
<path d="M2170 3331 l-45 -6 -3 -332 -2 -333 157 0 c237 0 353 32 442 121 59
60 85 120 89 211 9 179 -87 291 -283 333 -70 15 -265 18 -355 6z"/>
<path d="M2120 2062 c0 -262 3 -393 10 -397 23 -14 334 -8 407 8 232 51 362
212 339 419 -19 165 -109 268 -285 326 -68 23 -96 26 -273 30 l-198 4 0 -390z"/>
</g>
</svg>
